<svg xmlns="http://www.w3.org/2000/svg" xmlns:xlink="http://www.w3.org/1999/xlink" xml:space="preserve" version="1.1" style="shape-rendering:geometricPrecision;text-rendering:geometricPrecision;image-rendering:optimizeQuality;" viewBox="0 0 8246 9750" x="0px" y="0px" fill-rule="evenodd" clip-rule="evenodd"><defs><style type="text/css">
   
    .fil0 {fill:black;fill-rule:nonzero}
   
  </style></defs><g><path class="fil0" d="M6628 1909c-93,-873 -833,-1537 -1712,-1537 -890,-1 -1635,677 -1716,1563 1,84 -54,146 -141,124 -624,-150 -1248,304 -1328,931 13,66 -35,129 -102,133 -484,28 -867,433 -867,920 0,506 415,921 921,921l4875 0c809,0 1466,-657 1466,-1467 0,-700 -494,-1296 -1167,-1436 -118,-22 -207,-28 -229,-152zm-3547 -461c271,-768 1000,-1298 1834,-1298 978,0 1798,726 1927,1683 805,137 1404,837 1404,1664 0,965 -759,1669 -1689,1689l-4874 0c-629,0 -1144,-514 -1144,-1143 0,-487 311,-914 757,-1076 -617,-430 -699,-1316 -164,-1851 592,-593 1588,-417 1949,332zm-1792 -175c-474,474 -348,1269 241,1578 142,-655 759,-1107 1437,-1031 -122,-787 -1100,-1125 -1678,-547z"/><path class="fil0" d="M2155 0l0 507c-81,0 -163,0 -244,0l0 -507 244 0z"/><polygon class="fil0" points="1122,211 1376,650 1164,773 911,334 "/><polygon class="fil0" points="334,911 773,1164 650,1376 211,1122 "/><path class="fil0" d="M0 1911l507 0 0 244c-169,0 -338,0 -507,0l0 -244z"/><polygon class="fil0" points="211,2944 650,2690 773,2902 334,3156 "/><polygon class="fil0" points="3156,334 2902,773 2690,650 2944,211 "/><path class="fil0" d="M1872 5500c17,-59 79,-92 138,-75 58,17 92,79 75,137l-71 240c-18,59 -79,92 -138,75 -59,-17 -92,-79 -75,-138l71 -239z"/><path class="fil0" d="M3072 5500c17,-59 79,-92 138,-75 58,17 92,79 75,137l-71 240c-18,59 -79,92 -138,75 -59,-17 -92,-79 -75,-138l71 -239z"/><path class="fil0" d="M4272 5500c17,-59 79,-92 138,-75 58,17 92,79 75,137l-71 240c-18,59 -79,92 -138,75 -59,-17 -92,-79 -75,-138l71 -239z"/><path class="fil0" d="M5472 5500c17,-59 79,-92 138,-75 58,17 92,79 75,137l-71 240c-18,59 -79,92 -138,75 -59,-17 -92,-79 -75,-138l71 -239z"/><path class="fil0" d="M6672 5500c17,-59 79,-92 138,-75 58,17 92,79 75,137l-71 240c-18,59 -79,92 -138,75 -59,-17 -92,-79 -75,-138l71 -239z"/><path class="fil0" d="M1683 6139c17,-58 79,-92 137,-75 59,18 93,79 75,138l-70 239c-18,59 -79,93 -138,76 -59,-18 -92,-79 -75,-138l71 -240z"/><path class="fil0" d="M2883 6139c17,-58 79,-92 137,-75 59,18 93,79 75,138l-70 239c-18,59 -79,93 -138,76 -59,-18 -92,-79 -75,-138l71 -240z"/><path class="fil0" d="M4083 6139c17,-58 79,-92 137,-75 59,18 93,79 75,138l-70 239c-18,59 -79,93 -138,76 -59,-18 -92,-79 -75,-138l71 -240z"/><path class="fil0" d="M5283 6139c17,-58 79,-92 137,-75 59,18 93,79 75,138l-70 239c-18,59 -79,93 -138,76 -59,-18 -92,-79 -75,-138l71 -240z"/><path class="fil0" d="M6483 6139c17,-58 79,-92 137,-75 59,18 93,79 75,138l-70 239c-18,59 -79,93 -138,76 -59,-18 -92,-79 -75,-138l71 -240z"/><path class="fil0" d="M1493 6779c18,-59 79,-92 138,-75 59,17 92,79 75,137l-71 240c-17,59 -79,92 -137,75 -59,-17 -93,-79 -75,-138l70 -239z"/><path class="fil0" d="M2693 6779c18,-59 79,-92 138,-75 59,17 92,79 75,137l-71 240c-17,59 -79,92 -137,75 -59,-17 -93,-79 -75,-138l70 -239z"/><path class="fil0" d="M3893 6779c18,-59 79,-92 138,-75 59,17 92,79 75,137l-71 240c-17,59 -79,92 -137,75 -59,-17 -93,-79 -75,-138l70 -239z"/><path class="fil0" d="M5093 6779c18,-59 79,-92 138,-75 59,17 92,79 75,137l-71 240c-17,59 -79,92 -137,75 -59,-17 -93,-79 -75,-138l70 -239z"/><path class="fil0" d="M6293 6779c18,-59 79,-92 138,-75 59,17 92,79 75,137l-71 240c-17,59 -79,92 -137,75 -59,-17 -93,-79 -75,-138l70 -239z"/><path class="fil0" d="M1304 7418c18,-58 79,-92 138,-75 59,18 92,79 75,138l-71 239c-17,59 -79,93 -137,76 -59,-18 -93,-79 -76,-138l71 -240z"/><path class="fil0" d="M2504 7418c18,-58 79,-92 138,-75 59,18 92,79 75,138l-71 239c-17,59 -79,93 -137,76 -59,-18 -93,-79 -76,-138l71 -240z"/><path class="fil0" d="M3704 7418c18,-58 79,-92 138,-75 59,18 92,79 75,138l-71 239c-17,59 -79,93 -137,76 -59,-18 -93,-79 -76,-138l71 -240z"/><path class="fil0" d="M4904 7418c18,-58 79,-92 138,-75 59,18 92,79 75,138l-71 239c-17,59 -79,93 -137,76 -59,-18 -93,-79 -76,-138l71 -240z"/><path class="fil0" d="M6104 7418c18,-58 79,-92 138,-75 59,18 92,79 75,138l-71 239c-17,59 -79,93 -137,76 -59,-18 -93,-79 -76,-138l71 -240z"/></g><text x="0" y="7815" fill="#000000" font-size="5px" font-weight="bold" font-family="'Helvetica Neue', Helvetica, Arial-Unicode, Arial, Sans-serif">Created by tajhin palappa</text><text x="0" y="7820" fill="#000000" font-size="5px" font-weight="bold" font-family="'Helvetica Neue', Helvetica, Arial-Unicode, Arial, Sans-serif">from the Noun Project</text></svg>